<svg width="322" height="711" viewBox="0 0 322 711" fill="none" xmlns="http://www.w3.org/2000/svg">
<g clip-path="url(#clip0_165_9502)">
<path fill-rule="evenodd" clip-rule="evenodd" d="M10 3C10 1.34315 11.3431 0 13 0H26C27.6569 0 29 1.34315 29 3V16C29 17.6569 27.6569 19 26 19H13C11.3431 19 10 17.6569 10 16V3ZM79 31H-10V138.336C-4.05646 132.558 4.05627 129 13 129C31.2254 129 46 143.775 46 162C46 180.225 31.2254 195 13 195C4.05627 195 -4.05646 191.442 -10 185.664V291.5H4.08012C6.24271 296.588 11.1706 300.143 16.9036 300.143H30.8976V329L58.8855 300.143H86.8735C94.6021 300.143 100.867 293.683 100.867 285.714V252H134C136.761 252 139 249.761 139 247V244.011C139 242.226 137.999 240.627 136.669 239.437C133.803 236.874 132 233.147 132 229C132 221.268 138.268 215 146 215C153.732 215 160 221.268 160 229C160 233.147 158.197 236.874 155.331 239.437C154.001 240.627 153 242.226 153 244.011V247C153 249.761 155.239 252 158 252H185.5C187.157 252 188.5 250.657 188.5 249V215.5C188.5 212.739 190.739 210.5 193.5 210.5H195.489C197.274 210.5 198.873 211.501 200.063 212.831C202.626 215.697 206.353 217.5 210.5 217.5C218.232 217.5 224.5 211.232 224.5 203.5H285C286.657 203.5 288 202.157 288 200.5V136C288 134.343 286.657 133 285 133H209.5C209.5 95.7208 179.279 65.5 142 65.5H89V41C89 35.4771 84.5229 31 79 31ZM301 180C299.343 180 298 181.343 298 183V196C298 197.657 299.343 199 301 199H314C315.657 199 317 197.657 317 196V183C317 181.343 315.657 180 314 180H301ZM113 262C111.343 262 110 263.343 110 265V275C110 276.657 111.343 278 113 278H123C124.657 278 126 276.657 126 275V265C126 263.343 124.657 262 123 262H113ZM225.085 152.93H214.343V155.442H232.681C232.566 155.828 232.424 156.27 232.251 156.744C231.655 158.372 230.734 160.279 229.413 161.67L226.278 164.968L225.133 163.763C223.734 162.291 222.803 160.82 222.224 159.724C221.935 159.177 221.735 158.725 221.61 158.417C221.547 158.263 221.503 158.145 221.476 158.069C221.462 158.031 221.453 158.004 221.448 157.988L221.442 157.973C221.442 157.973 221.442 157.973 221.414 157.983L221.374 157.997L221.281 158.031C221.133 158.083 220.851 158.183 220.311 158.372L219.669 158.597L219.454 158.673L219.223 158.754C219.179 158.77 219.179 158.77 219.179 158.77L219.18 158.772L219.181 158.777L219.185 158.789L219.198 158.828L219.214 158.873C219.222 158.897 219.232 158.925 219.243 158.957C219.282 159.065 219.339 159.217 219.416 159.406C219.57 159.785 219.805 160.314 220.138 160.944C220.802 162.202 221.86 163.871 223.445 165.539L224.59 166.744L215.496 176.312L215.49 176.319L215.489 176.32L217.177 178.096L217.182 178.091L226.352 168.443L231.482 172.941L233.01 171.011L228.046 166.659L231.101 163.446C232.763 161.697 233.831 159.418 234.479 157.645C234.796 156.778 235.021 156.008 235.169 155.442H238.213V152.93H227.472V150H225.085V152.93ZM241.079 162.558L249.259 183H246.669L244.435 177.418H235.97L233.736 183H231.146L239.326 162.558H241.079ZM236.975 174.906H243.43L240.202 166.84L236.975 174.906ZM20.2498 53.1211L32.7406 65.9997L20.2498 78.8784L24.3646 83.1211L40.9703 65.9997L24.3646 48.8784L20.2498 53.1211ZM44.1295 83.9997H63.5271V77.9997H44.1295V83.9997ZM118.325 110.361V149.639C118.325 151.984 120.896 153.423 122.895 152.196L154.894 132.557C156.802 131.386 156.802 128.614 154.894 127.443L122.895 107.804C120.896 106.577 118.325 108.016 118.325 110.361ZM40.5937 246.551C40.5937 248.992 38.6818 250.965 36.3161 250.965C33.9504 250.965 32.0384 248.992 32.0384 246.551C32.0384 244.11 33.9504 242.137 36.3161 242.137H40.5937V246.551ZM42.7326 246.551C42.7326 244.11 44.6446 242.137 47.0102 242.137C49.3759 242.137 51.2879 244.11 51.2879 246.551V257.586C51.2879 260.027 49.3759 262 47.0102 262C44.6446 262 42.7326 260.027 42.7326 257.586V246.551ZM42.7326 224.414C42.7326 226.855 44.6445 228.828 47.0102 228.828H51.2879V224.414C51.2879 221.973 49.3759 220 47.0102 220C44.6445 220 42.7326 221.973 42.7326 224.414ZM51.2879 235.482C51.2879 233.041 49.3759 231.068 47.0102 231.068H36.2837C33.918 231.068 32.006 233.041 32.006 235.482C32.006 237.924 33.918 239.896 36.2837 239.896H47.0102C49.3759 239.896 51.2879 237.924 51.2879 235.482ZM64.1533 235.482C64.1533 233.041 66.0652 231.068 68.4309 231.068C70.7966 231.068 72.7086 233.041 72.7086 235.482C72.7086 237.924 70.7966 239.896 68.4309 239.896H64.1533V235.482ZM62.0144 235.482C62.0144 237.924 60.1024 239.896 57.7368 239.896C55.3711 239.896 53.4591 237.924 53.4591 235.482V224.414C53.4591 221.973 55.3711 220 57.7368 220C60.1024 220 62.0144 221.973 62.0144 224.414V235.482ZM62.0144 257.586C62.0144 255.145 60.1024 253.172 57.7368 253.172H53.4591V257.586C53.4591 260.027 55.3711 262 57.7368 262C60.1024 262 62.0144 260.027 62.0144 257.586ZM53.4591 246.551C53.4591 248.992 55.3711 250.965 57.7368 250.965H68.4633C70.829 250.965 72.741 248.992 72.741 246.551C72.741 244.11 70.829 242.137 68.4633 242.137H57.7368C55.3711 242.137 53.4591 244.11 53.4591 246.551Z" fill="#1B1D20"/>
<path d="M21.7749 158.887C22.3211 157.385 22.4576 155.883 22.3211 154.381C22.1845 152.879 21.6383 151.377 20.9556 150.012C19.7267 147.964 17.9516 146.325 15.9035 145.369C13.7188 144.414 11.3975 144.141 9.07628 144.687C7.98393 143.594 6.75503 142.639 5.38959 141.956C4.02415 141.273 2.38562 141 0.883633 141C-1.43762 141 -3.75887 141.683 -5.67048 143.048C-7.5821 144.414 -8.94754 146.325 -9.63026 148.51C-11.2688 148.92 -12.6342 149.602 -13.9997 150.422C-15.2286 151.377 -16.1844 152.606 -17.0036 153.835C-18.2325 155.883 -18.6422 158.205 -18.3691 160.526C-18.096 162.847 -17.1402 165.032 -15.6382 166.807C-16.1844 168.309 -16.3209 169.811 -16.1844 171.313C-16.0478 172.815 -15.5017 174.317 -14.8189 175.682C-13.59 177.73 -11.815 179.369 -9.76681 180.325C-7.5821 181.281 -5.26085 181.554 -2.9396 181.007C-1.84725 182.1 -0.618351 183.056 0.747089 183.738C2.11253 184.421 3.75106 184.694 5.25305 184.694C7.5743 184.694 9.89555 184.011 11.8072 182.646C13.7188 181.281 15.0842 179.369 15.7669 177.184C17.2689 176.911 18.7709 176.228 19.9998 175.273C21.2287 174.317 22.3211 173.224 23.0038 171.859C24.2327 169.811 24.6423 167.49 24.3692 165.168C24.0961 162.847 23.2769 160.662 21.7749 158.887ZM5.38959 181.827C3.20489 181.827 1.56635 181.144 0.0643692 179.915C0.0643692 179.915 0.200912 179.779 0.337458 179.779L9.07628 174.726C9.34937 174.59 9.48591 174.453 9.62246 174.18C9.759 173.907 9.759 173.771 9.759 173.497V161.209L13.4457 163.393V173.497C13.5822 178.277 9.759 181.827 5.38959 181.827ZM-12.2246 174.317C-13.1804 172.678 -13.59 170.767 -13.1804 168.855C-13.1804 168.855 -13.0439 168.992 -12.9073 168.992L-4.1685 174.044C-3.89541 174.18 -3.75887 174.18 -3.48578 174.18C-3.21269 174.18 -2.9396 174.18 -2.80306 174.044L7.84738 167.899V172.132L-1.02798 177.321C-2.9396 178.413 -5.12431 178.686 -7.17247 178.14C-9.35717 177.594 -11.1322 176.228 -12.2246 174.317ZM-14.5459 155.337C-13.59 153.699 -12.0881 152.47 -10.313 151.787V152.06V162.164C-10.313 162.437 -10.313 162.711 -10.1764 162.847C-10.0399 163.12 -9.90335 163.257 -9.63026 163.393L1.02018 169.538L-2.66651 171.722L-11.4053 166.67C-13.317 165.578 -14.6824 163.803 -15.2286 161.755C-15.7747 159.707 -15.6382 157.249 -14.5459 155.337ZM15.6304 162.301L4.97996 156.156L8.66665 153.972L17.4055 159.024C18.7709 159.843 19.8633 160.935 20.546 162.301C21.2287 163.666 21.6383 165.168 21.5018 166.807C21.3652 168.309 20.8191 169.811 19.8633 171.04C18.9075 172.269 17.6786 173.224 16.1766 173.771V163.393C16.1766 163.12 16.1766 162.847 16.04 162.711C16.04 162.711 15.9035 162.437 15.6304 162.301ZM19.3171 156.839C19.3171 156.839 19.1805 156.703 19.044 156.703L10.3052 151.65C10.0321 151.514 9.89555 151.514 9.62246 151.514C9.34937 151.514 9.07628 151.514 8.93974 151.65L-1.7107 157.795V153.562L7.16466 148.373C8.53011 147.554 10.0321 147.281 11.6706 147.281C13.1726 147.281 14.6746 147.827 16.04 148.783C17.2689 149.739 18.3613 150.968 18.9075 152.333C19.4536 153.699 19.5902 155.337 19.3171 156.839ZM-3.62232 164.486L-7.30901 162.301V152.06C-7.30901 150.558 -6.89938 148.92 -6.08012 147.691C-5.26085 146.325 -4.03195 145.369 -2.66651 144.687C-1.30107 144.004 0.337458 143.731 1.83944 144.004C3.34143 144.141 4.84341 144.823 6.07231 145.779C6.07231 145.779 5.93577 145.916 5.79922 145.916L-2.9396 150.968C-3.21269 151.104 -3.34923 151.241 -3.48578 151.514C-3.62232 151.787 -3.62232 151.924 -3.62232 152.197V164.486ZM-1.7107 160.116L3.06834 157.385L7.84738 160.116V165.578L3.06834 168.309L-1.7107 165.578V160.116Z" fill="#1B1D20"/>
<g clip-path="url(#clip1_165_9502)">
<path fill-rule="evenodd" clip-rule="evenodd" d="M119 586.5V597.375C119 613.921 94.6676 629.291 58.5 631.282V684.5C58.5 686.157 57.1569 687.5 55.5 687.5H-10V613.414C-15.1679 608.528 -18 603.02 -18 597.375V570.575C-17.2652 571.53 -16.426 572.452 -15.4929 573.338C-11.7353 576.908 -6.38023 579.987 0.105211 582.51C13.0834 587.558 30.9039 590.499 50.5 590.499C70.0961 590.499 87.9166 587.558 100.895 582.51C107.38 579.987 112.735 576.908 116.493 573.338C120.261 569.759 122.5 565.603 122.5 560.999H119.5C119.5 564.546 117.793 567.965 114.427 571.163C111.049 574.372 106.08 577.274 99.8073 579.714C87.2695 584.591 69.84 587.499 50.5 587.499C31.16 587.499 13.7305 584.591 1.19273 579.714C-5.07981 577.274 -10.0492 574.372 -13.4266 571.163C-15.7397 568.966 -17.2692 566.664 -18 564.289V527.575C-17.2652 528.53 -16.426 529.452 -15.4929 530.338C-11.7353 533.908 -6.38024 536.987 0.105211 539.51C13.0834 544.558 30.9039 547.499 50.5 547.499C70.0961 547.499 87.9166 544.558 100.895 539.51C107.38 536.987 112.735 533.908 116.493 530.338C120.261 526.759 122.5 522.603 122.5 517.999H119.5C119.5 521.546 117.793 524.965 114.427 528.163C111.049 531.372 106.08 534.274 99.8073 536.714C87.2695 541.591 69.84 544.499 50.5 544.499C31.16 544.499 13.7305 541.591 1.19273 536.714C-5.07981 534.274 -10.0492 531.372 -13.4266 528.163C-15.7397 525.966 -17.2692 523.664 -18 521.289V481.792C-12.3908 494.961 16.1433 503.999 50.5 503.999C88.8838 503.999 120 492.718 120 476.999C120 468.803 111.54 461.813 98 457V460.192C98.1936 460.263 98.3859 460.336 98.5771 460.408C104.657 462.722 109.361 465.434 112.496 468.347C115.611 471.241 117 474.151 117 476.999C117 479.847 115.611 482.757 112.496 485.652C109.361 488.564 104.657 491.276 98.5771 493.59C86.4337 498.21 69.442 500.999 50.5 500.999C31.558 500.999 14.5663 498.21 2.42288 493.59C-3.65723 491.276 -8.36147 488.564 -11.4962 485.652C-14.6113 482.757 -16 479.847 -16 476.999C-16 474.151 -14.6113 471.241 -11.4962 468.347C-8.43454 465.502 -3.87566 462.848 2 460.571V457.363C-2.69444 459.102 -6.74416 461.109 -10 463.343V342H89.5C100.546 342 109.5 350.954 109.5 362V396.5H136C137.657 396.5 139 397.843 139 399.5V419.475C143.035 418.192 147.333 417.5 151.792 417.5C158.277 417.492 164.675 418.985 170.488 421.86C176.301 424.736 181.371 428.917 185.303 434.078C192.299 426.784 202.046 422.255 212.821 422.255C227.144 422.255 239.644 430.249 246.298 442.117C252.253 439.455 258.702 438.083 265.223 438.091C291.058 438.091 312 459.234 312 485.318C312 511.403 291.058 532.545 265.223 532.545C262.064 532.545 258.984 532.229 256.005 531.628C250.146 542.085 238.972 549.153 226.154 549.153C220.788 549.153 215.712 547.918 211.195 545.707C205.253 559.696 191.409 569.5 175.278 569.5C175.185 569.5 175.093 569.5 175 569.499V583.5C175 585.157 173.657 586.5 172 586.5H119ZM6 695.5C6 693.843 7.34315 692.5 9 692.5H22C23.6569 692.5 25 693.843 25 695.5V708.5C25 710.157 23.6569 711.5 22 711.5H9C7.34315 711.5 6 710.157 6 708.5V695.5ZM314 459.5C318.418 459.5 322 455.918 322 451.5C322 447.082 318.418 443.5 314 443.5C309.582 443.5 306 447.082 306 451.5C306 455.918 309.582 459.5 314 459.5ZM151 392.5C151 394.709 149.209 396.5 147 396.5C144.791 396.5 143 394.709 143 392.5C143 390.291 144.791 388.5 147 388.5C149.209 388.5 151 390.291 151 392.5ZM21 421.379C21 421.366 24.9436 414.833 29.7635 406.862L38.5271 392.37L48.74 384.191C54.357 379.693 58.968 376.007 58.9865 376C59.0049 375.993 58.9311 376.171 58.8223 376.395C58.7135 376.618 53.7231 386.832 47.7325 399.093L36.8406 421.385L28.9203 421.394C24.5641 421.399 21 421.393 21 421.379ZM52.9211 424.276C61.786 422.782 69.1079 421.545 69.192 421.528L69.3449 421.497L60.9756 411.998C56.3724 406.773 52.6062 402.478 52.6062 402.453C52.6062 402.406 61.2483 379.696 61.2969 379.615C61.3131 379.588 67.1943 389.278 75.5532 403.103C83.379 416.046 89.831 426.718 89.891 426.818L90 427L63.4016 426.997L36.8031 426.993L52.9211 424.276ZM187.836 470C194.571 470.011 200.68 473.934 203.463 480.036C206.246 486.138 205.192 493.296 200.765 498.346L179.378 519.649C176.659 522.434 172.922 524.004 169.019 524C165.098 523.999 161.343 522.427 158.601 519.638L157.117 518.177L164.367 510.965L165.911 512.489C166.708 513.34 167.821 513.826 168.99 513.834C170.164 513.847 171.293 513.384 172.117 512.551L192.629 492.144C193.757 490.894 194.374 489.269 194.359 487.589C194.375 485.754 193.655 483.988 192.357 482.684C191.059 481.38 189.291 480.646 187.447 480.645C185.751 480.624 184.109 481.241 182.851 482.374L151.99 513.081L137.22 498.325C134.494 495.195 132.996 491.192 133 487.051C133.026 480.256 137.091 474.12 143.357 471.418C149.622 468.715 156.902 469.957 161.905 474.583L164.005 476.67L156.72 483.918C156.72 483.918 155.558 482.721 155.147 482.36C153.894 481.24 152.264 480.627 150.579 480.645C148.736 480.634 146.966 481.355 145.66 482.647C144.354 483.939 143.62 485.697 143.621 487.529C143.599 489.223 144.217 490.862 145.353 492.123L151.938 498.674L174.942 475.814C178.195 472.116 182.896 469.996 187.836 470ZM37.6581 651.385C36.6103 648.099 34.5505 645.229 31.7733 643.184C28.9961 641.14 25.6436 640.025 22.1949 640C19.2792 639.984 16.414 640.762 13.9072 642.251C11.4004 643.74 9.34678 645.884 7.96695 648.453C5.43097 648.907 3.10621 650.159 1.33104 652.026C-0.444128 653.894 -1.57705 656.279 -1.90284 658.834C-2.22863 661.39 -1.73028 663.983 -0.480316 666.236C0.769646 668.489 2.70597 670.284 5.04684 671.36L5.3506 671.498H5.37085V668.055C3.76501 667.069 2.50786 665.606 1.7756 663.87C1.04334 662.134 0.872673 660.212 1.28752 658.374C1.70237 656.536 2.68194 654.874 4.08893 653.62C5.49593 652.367 7.25982 651.585 9.13338 651.385L9.98389 651.296L10.3565 650.53C11.4145 648.288 13.0905 646.395 15.1876 645.073C17.2847 643.75 19.7158 643.054 22.1949 643.066C25.1489 643.087 28.0112 644.095 30.3266 645.93C32.6419 647.764 34.2774 650.32 34.9729 653.191L35.2645 654.35H36.4796C38.4383 654.39 40.3036 655.194 41.6771 656.591C43.0507 657.988 43.8235 659.867 43.8305 661.826C43.8305 664.681 42.1821 667.018 39.3754 668.201V671.465L39.5779 671.401C44.0897 669.922 46.8923 666.253 46.8923 661.826C46.8738 659.264 45.9284 656.795 44.231 654.876C42.5336 652.957 40.1988 651.717 37.6581 651.385ZM16.9298 671.773L16.2575 671.101C15.8051 670.647 15.5503 670.032 15.5487 669.392V659.266C15.5498 659.231 15.5647 659.197 15.5904 659.172C15.6161 659.147 15.6506 659.133 15.6864 659.133H16.8366C16.8627 659.132 16.888 659.124 16.9095 659.109C16.931 659.095 16.9477 659.074 16.9576 659.05C16.9675 659.026 16.9701 658.999 16.9652 658.974C16.9602 658.948 16.9479 658.925 16.9298 658.906L12.4301 654.402C12.4177 654.39 12.4029 654.38 12.3865 654.373C12.3702 654.366 12.3527 654.362 12.335 654.362C12.3172 654.362 12.2997 654.366 12.2834 654.373C12.267 654.38 12.2522 654.39 12.2398 654.402L7.73609 658.906C7.71769 658.925 7.70531 658.949 7.7005 658.975C7.6957 659.001 7.69868 659.027 7.70907 659.052C7.71947 659.076 7.73681 659.097 7.75892 659.111C7.78102 659.125 7.8069 659.133 7.83329 659.133H8.96731C9.00276 659.133 9.03675 659.147 9.06182 659.172C9.08688 659.197 9.10096 659.231 9.10096 659.266V669.57C9.10096 670.214 9.35699 670.832 9.81271 671.288C10.2684 671.744 10.8865 672 11.531 672H16.8366C16.8627 671.999 16.888 671.991 16.9095 671.976C16.931 671.962 16.9477 671.941 16.9576 671.917C16.9675 671.893 16.9701 671.866 16.9652 671.841C16.9602 671.815 16.9479 671.792 16.9298 671.773ZM26.2086 671.101L26.8849 671.773C26.9033 671.792 26.9157 671.816 26.9205 671.842C26.9253 671.868 26.9224 671.895 26.912 671.919C26.9016 671.943 26.8842 671.964 26.8621 671.978C26.84 671.993 26.8141 672 26.7877 672H21.4943C20.8498 672 20.2317 671.744 19.776 671.288C19.3203 670.832 19.0642 670.214 19.0642 669.57V661.871C19.0643 661.835 19.0503 661.8 19.0253 661.775C19.0004 661.749 18.9664 661.734 18.9306 661.733H17.7844C17.7584 661.732 17.733 661.724 17.7115 661.71C17.6901 661.695 17.6733 661.674 17.6634 661.65C17.6586 661.638 17.6554 661.626 17.6541 661.613C17.6528 661.6 17.6533 661.587 17.6558 661.574C17.6608 661.548 17.6731 661.525 17.6913 661.506L22.1909 657.01C22.2033 656.998 22.2182 656.988 22.2345 656.981C22.2508 656.974 22.2684 656.971 22.2861 656.971C22.2942 656.971 22.3024 656.971 22.3103 656.973C22.3197 656.975 22.3288 656.977 22.3377 656.981C22.354 656.988 22.3688 656.998 22.3813 657.01L26.8849 661.498C26.9033 661.517 26.9157 661.541 26.9205 661.567C26.9253 661.593 26.9224 661.62 26.912 661.644C26.9016 661.668 26.8842 661.689 26.8621 661.703C26.8544 661.708 26.8463 661.712 26.8378 661.716C26.8299 661.719 26.8217 661.721 26.8133 661.723C26.8049 661.724 26.7964 661.725 26.7877 661.725H25.6375C25.6017 661.726 25.5677 661.741 25.5428 661.767C25.5178 661.792 25.5039 661.827 25.5039 661.863V669.392C25.5044 670.032 25.7577 670.646 26.2086 671.101ZM36.836 671.773L36.1637 671.101C35.7113 670.647 35.4565 670.033 35.4549 669.392V664.455C35.4549 664.419 35.469 664.385 35.494 664.36C35.5191 664.335 35.5531 664.321 35.5885 664.321H36.7428C36.7697 664.321 36.7961 664.313 36.8184 664.299C36.8408 664.284 36.8581 664.262 36.8682 664.237C36.8783 664.212 36.8806 664.185 36.8748 664.159C36.8691 664.133 36.8555 664.109 36.836 664.09L32.3323 659.59C32.3202 659.578 32.3057 659.568 32.2897 659.561C32.2737 659.554 32.2565 659.551 32.2391 659.551C32.2335 659.551 32.2279 659.551 32.2223 659.552C32.2107 659.554 32.1994 659.557 32.1885 659.561C32.1805 659.565 32.1728 659.569 32.1656 659.574C32.1585 659.579 32.152 659.584 32.146 659.59L27.6423 664.09C27.6227 664.109 27.6092 664.133 27.6034 664.159C27.5977 664.185 27.6 664.212 27.6101 664.237C27.6201 664.262 27.6375 664.284 27.6598 664.299C27.6822 664.313 27.7085 664.321 27.7354 664.321H28.8695C28.9049 664.321 28.9389 664.335 28.964 664.36C28.989 664.385 29.0031 664.419 29.0031 664.455V669.57C29.0031 670.214 29.2591 670.832 29.7149 671.288C30.1706 671.744 30.7887 672 31.4332 672H36.7428C36.7627 672 36.7823 671.995 36.7999 671.986C36.8054 671.983 36.8106 671.98 36.8157 671.977C36.8372 671.962 36.8539 671.941 36.8638 671.917C36.8737 671.893 36.8763 671.867 36.8714 671.841C36.8695 671.831 36.8665 671.822 36.8626 671.813C36.8562 671.798 36.8472 671.785 36.836 671.773Z" fill="#1B1D20"/>
</g>
</g>
<defs>
<clipPath id="clip0_165_9502">
<rect width="322" height="711" fill="white"/>
</clipPath>
<clipPath id="clip1_165_9502">
<rect width="332" height="369" fill="white" transform="translate(-10 342)"/>
</clipPath>
</defs>
</svg>
